STARTFONT 2.1
FONT -Mozilla-Helvetica-Medium-I-Normal--18-90-100-100-P-95-ISO8859-1
SIZE 9 100 100
FONTBOUNDINGBOX 21 22 -2 -5
STARTPROPERTIES 15
POINT_SIZE 90
PIXEL_SIZE 18
RESOLUTION_X 100
RESOLUTION_Y 100
FONT_ASCENT 16
FONT_DESCENT 3
AVERAGE_WIDTH 95
SPACING "P"
FOUNDRY "Mozilla"
FAMILY_NAME "Helvetica"
CHARSET_REGISTRY "ISO8859"
CHARSET_ENCODING "1"
WEIGHT_NAME "Medium"
SLANT "I"
SETWIDTH_NAME "Normal"
ENDPROPERTIES
CHARS 191
STARTCHAR char32
ENCODING 32
SWIDTH 24 0
DWIDTH 5 0
BBX 0 0 0 0
BITMAP
ENDCHAR
STARTCHAR char33
ENCODING 33
SWIDTH 24 0
DWIDTH 5 0
BBX 5 13 1 0
BITMAP
18
18
30
30
30
20
20
60
40
40
00
C0
C0
ENDCHAR
STARTCHAR char34
ENCODING 34
SWIDTH 29 0
DWIDTH 6 0
BBX 5 5 2 8
BITMAP
D8
D8
D8
90
90
ENDCHAR
STARTCHAR char35
ENCODING 35
SWIDTH 49 0
DWIDTH 10 0
BBX 10 13 1 0
BITMAP
1980
1980
1980
FFC0
FFC0
3300
3300
3300
FFC0
FFC0
6600
6600
6E00
ENDCHAR
STARTCHAR char36
ENCODING 36
SWIDTH 49 0
DWIDTH 10 0
BBX 9 15 1 -1
BITMAP
0200
1F00
3780
6580
6400
6400
3C00
0E00
0B00
0B00
CB00
CB00
7E00
3C00
1000
ENDCHAR
STARTCHAR char37
ENCODING 37
SWIDTH 29 0
DWIDTH 16 0
BBX 14 13 1 0
BITMAP
3C18
7E30
E660
C6C0
CEC0
FD80
7B78
06FC
0DCC
0D8C
199C
31F8
60F0
ENDCHAR
STARTCHAR char38
ENCODING 38
SWIDTH 9 0
DWIDTH 12 0
BBX 10 13 1 0
BITMAP
0F00
1F80
1980
1980
0B00
1C00
3C00
4640
C3C0
C180
E380
7EC0
3C80
ENDCHAR
STARTCHAR char39
ENCODING 39
SWIDTH 14 0
DWIDTH 3 0
BBX 2 5 2 8
BITMAP
C0
C0
C0
80
80
ENDCHAR
STARTCHAR char40
ENCODING 40
SWIDTH 29 0
DWIDTH 6 0
BBX 6 17 1 -4
BITMAP
04
08
10
30
20
60
60
C0
C0
C0
C0
C0
C0
C0
C0
40
60
ENDCHAR
STARTCHAR char41
ENCODING 41
SWIDTH 29 0
DWIDTH 6 0
BBX 6 17 -1 -4
BITMAP
18
08
0C
0C
0C
0C
0C
0C
0C
0C
18
18
10
30
20
40
80
ENDCHAR
STARTCHAR char42
ENCODING 42
SWIDTH 34 0
DWIDTH 7 0
BBX 6 5 2 8
BITMAP
30
FC
30
78
48
ENDCHAR
STARTCHAR char43
ENCODING 43
SWIDTH 4 0
DWIDTH 11 0
BBX 10 10 2 2
BITMAP
0C00
0C00
0C00
0C00
FFC0
FFC0
0C00
0C00
0C00
0C00
ENDCHAR
STARTCHAR char44
ENCODING 44
SWIDTH 24 0
DWIDTH 5 0
BBX 2 5 1 -3
BITMAP
C0
C0
40
80
80
ENDCHAR
STARTCHAR char45
ENCODING 45
SWIDTH 29 0
DWIDTH 6 0
BBX 5 2 1 4
BITMAP
F8
F8
ENDCHAR
STARTCHAR char46
ENCODING 46
SWIDTH 24 0
DWIDTH 5 0
BBX 2 2 1 0
BITMAP
C0
C0
ENDCHAR
STARTCHAR char47
ENCODING 47
SWIDTH 24 0
DWIDTH 5 0
BBX 9 13 -1 0
BITMAP
0180
0300
0300
0600
0600
0C00
1C00
1800
3000
3000
6000
6000
C000
ENDCHAR
STARTCHAR char48
ENCODING 48
SWIDTH 49 0
DWIDTH 10 0
BBX 9 13 1 0
BITMAP
0E00
3F00
3180
6180
6180
E180
C180
C380
C300
C300
E600
7E00
3800
ENDCHAR
STARTCHAR char49
ENCODING 49
SWIDTH 49 0
DWIDTH 10 0
BBX 7 13 2 0
BITMAP
06
0C
1C
3C
CC
0C
18
18
18
18
18
30
30
ENDCHAR
STARTCHAR char50
ENCODING 50
SWIDTH 49 0
DWIDTH 10 0
BBX 9 13 1 0
BITMAP
1E00
3F00
7380
6180
0180
0300
0600
0C00
1800
3000
6000
FF00
FF00
ENDCHAR
STARTCHAR char51
ENCODING 51
SWIDTH 49 0
DWIDTH 10 0
BBX 9 13 1 0
BITMAP
1E00
3F00
7180
2180
0380
1F00
1E00
0700
0300
C300
E700
7E00
3C00
ENDCHAR
STARTCHAR char52
ENCODING 52
SWIDTH 49 0
DWIDTH 10 0
BBX 9 13 1 0
BITMAP
0180
0380
0700
0F00
1B00
3300
6700
C600
FF80
FF80
0600
0C00
0C00
ENDCHAR
STARTCHAR char53
ENCODING 53
SWIDTH 49 0
DWIDTH 10 0
BBX 9 13 1 0
BITMAP
1F80
1F80
3000
3000
3E00
7F00
6380
0180
0180
C180
E300
7F00
3C00
ENDCHAR
STARTCHAR char54
ENCODING 54
SWIDTH 49 0
DWIDTH 10 0
BBX 9 13 1 0
BITMAP
0F00
3F80
3180
6000
6E00
FE00
E700
C300
C300
C300
E600
7E00
3C00
ENDCHAR
STARTCHAR char55
ENCODING 55
SWIDTH 49 0
DWIDTH 10 0
BBX 8 13 3 0
BITMAP
FF
FE
06
0C
08
18
30
30
60
60
60
C0
C0
ENDCHAR
STARTCHAR char56
ENCODING 56
SWIDTH 49 0
DWIDTH 10 0
BBX 9 13 1 0
BITMAP
0F00
3F80
3180
3180
1F00
3E00
6700
C300
C300
C300
E600
7E00
3C00
ENDCHAR
STARTCHAR char57
ENCODING 57
SWIDTH 49 0
DWIDTH 10 0
BBX 9 13 1 0
BITMAP
1E00
3F00
3380
6180
6180
6180
7380
3F80
1B00
0300
C600
FE00
7800
ENDCHAR
STARTCHAR char58
ENCODING 58
SWIDTH 24 0
DWIDTH 5 0
BBX 4 10 1 0
BITMAP
30
30
00
00
00
00
00
00
C0
C0
ENDCHAR
STARTCHAR char59
ENCODING 59
SWIDTH 24 0
DWIDTH 5 0
BBX 4 13 1 -3
BITMAP
30
30
00
00
00
00
00
00
C0
C0
40
80
80
ENDCHAR
STARTCHAR char60
ENCODING 60
SWIDTH 4 0
DWIDTH 11 0
BBX 9 9 2 2
BITMAP
0080
0380
1F00
7800
C000
7800
1F00
0380
0080
ENDCHAR
STARTCHAR char61
ENCODING 61
SWIDTH 4 0
DWIDTH 11 0
BBX 9 6 2 4
BITMAP
FF80
FF80
0000
0000
FF80
FF80
ENDCHAR
STARTCHAR char62
ENCODING 62
SWIDTH 4 0
DWIDTH 11 0
BBX 9 9 2 2
BITMAP
8000
E000
7C00
0F00
0180
0F00
7C00
E000
8000
ENDCHAR
STARTCHAR char63
ENCODING 63
SWIDTH 49 0
DWIDTH 10 0
BBX 9 13 2 0
BITMAP
3E00
7F80
C180
0180
0300
0E00
1800
3000
6000
6000
0000
6000
6000
ENDCHAR
STARTCHAR char64
ENCODING 64
SWIDTH 39 0
DWIDTH 18 0
BBX 17 18 1 -5
BITMAP
03F000
0FFC00
1C0E00
3B9F00
77DB80
6E7180
FC3180
D83180
D83180
D87300
DCE700
CFFE00
E77800
600180
700300
3C0E00
1FFC00
03F000
ENDCHAR
STARTCHAR char65
ENCODING 65
SWIDTH 9 0
DWIDTH 12 0
BBX 11 13 0 0
BITMAP
0380
06C0
06C0
0CC0
0CC0
18C0
18C0
3FC0
3FC0
6060
6060
C060
C060
ENDCHAR
STARTCHAR char66
ENCODING 66
SWIDTH 9 0
DWIDTH 12 0
BBX 11 13 1 0
BITMAP
1FC0
1FE0
3060
3060
30E0
3FC0
3FC0
6060
6060
6060
60E0
FFC0
FF80
ENDCHAR
STARTCHAR char67
ENCODING 67
SWIDTH 14 0
DWIDTH 13 0
BBX 11 13 2 0
BITMAP
0F80
3FC0
38E0
6060
6000
C000
C000
C000
C000
C0C0
6180
7F00
3E00
ENDCHAR
STARTCHAR char68
ENCODING 68
SWIDTH 14 0
DWIDTH 13 0
BBX 12 13 1 0
BITMAP
1FC0
1FE0
3060
3030
3030
3030
7030
6030
6060
6060
60C0
FF80
FF00
ENDCHAR
STARTCHAR char69
ENCODING 69
SWIDTH 9 0
DWIDTH 12 0
BBX 12 13 1 0
BITMAP
1FF0
1FF0
3000
3000
3000
3FC0
7FC0
6000
6000
6000
6000
FFC0
FFC0
ENDCHAR
STARTCHAR char70
ENCODING 70
SWIDTH 4 0
DWIDTH 11 0
BBX 12 13 1 0
BITMAP
1FF0
1FF0
3000
3000
3000
3FC0
7FC0
6000
6000
6000
6000
C000
C000
ENDCHAR
STARTCHAR char71
ENCODING 71
SWIDTH 19 0
DWIDTH 14 0
BBX 12 13 2 0
BITMAP
0F80
1FE0
3860
6030
6000
C000
C3E0
C3E0
C060
C0E0
60C0
7F80
1F00
ENDCHAR
STARTCHAR char72
ENCODING 72
SWIDTH 14 0
DWIDTH 13 0
BBX 13 13 1 0
BITMAP
1818
1818
3030
3030
3030
3FF0
7FF0
6060
6060
6060
6060
C0C0
C0C0
ENDCHAR
STARTCHAR char73
ENCODING 73
SWIDTH 24 0
DWIDTH 5 0
BBX 5 13 1 0
BITMAP
18
18
30
30
30
30
70
60
60
60
60
C0
C0
ENDCHAR
STARTCHAR char74
ENCODING 74
SWIDTH 44 0
DWIDTH 9 0
BBX 10 13 0 0
BITMAP
00C0
00C0
0180
0180
0180
0180
0180
0300
C300
C300
C700
FE00
7C00
ENDCHAR
STARTCHAR char75
ENCODING 75
SWIDTH 9 0
DWIDTH 12 0
BBX 11 13 1 0
BITMAP
1860
18C0
3180
3300
3600
3E00
7E00
7300
6300
6180
6180
C0C0
C060
ENDCHAR
STARTCHAR char76
ENCODING 76
SWIDTH 49 0
DWIDTH 10 0
BBX 8 13 1 0
BITMAP
18
18
30
30
30
30
70
60
60
60
60
FF
FF
ENDCHAR
STARTCHAR char77
ENCODING 77
SWIDTH 24 0
DWIDTH 15 0
BBX 16 13 1 0
BITMAP
1C0F
1E0F
361A
3616
3636
3666
666E
66CC
66CC
678C
670C
C718
C618
ENDCHAR
STARTCHAR char78
ENCODING 78
SWIDTH 14 0
DWIDTH 13 0
BBX 13 13 1 0
BITMAP
1C18
1C18
3638
3630
3630
3630
7330
6360
6360
6360
6160
C1C0
C1C0
ENDCHAR
STARTCHAR char79
ENCODING 79
SWIDTH 19 0
DWIDTH 14 0
BBX 12 13 2 0
BITMAP
0F80
1FC0
38E0
6070
E030
C030
C030
C030
C060
E060
71C0
3F80
1F00
ENDCHAR
STARTCHAR char80
ENCODING 80
SWIDTH 9 0
DWIDTH 12 0
BBX 12 13 1 0
BITMAP
1FE0
1FF0
3030
3030
3030
3060
7FE0
7F80
6000
6000
6000
C000
C000
ENDCHAR
STARTCHAR char81
ENCODING 81
SWIDTH 19 0
DWIDTH 14 0
BBX 12 15 2 -2
BITMAP
0F80
1FE0
38E0
6070
E030
C030
C030
C030
C260
E6E0
71C0
7F80
1EC0
00C0
0040
ENDCHAR
STARTCHAR char82
ENCODING 82
SWIDTH 14 0
DWIDTH 13 0
BBX 12 13 1 0
BITMAP
1FE0
1FF0
3030
3030
3070
3FE0
7FC0
6300
6180
6180
60C0
C0C0
C060
ENDCHAR
STARTCHAR char83
ENCODING 83
SWIDTH 9 0
DWIDTH 12 0
BBX 11 13 1 0
BITMAP
0F80
1FC0
38E0
3060
3000
1C00
0F00
0380
01C0
C0C0
E1C0
7F80
3F00
ENDCHAR
STARTCHAR char84
ENCODING 84
SWIDTH 4 0
DWIDTH 11 0
BBX 10 13 2 0
BITMAP
FFC0
FFC0
0C00
0C00
1800
1800
1800
1800
1800
1800
3000
3000
3000
ENDCHAR
STARTCHAR char85
ENCODING 85
SWIDTH 14 0
DWIDTH 13 0
BBX 12 13 2 0
BITMAP
3030
3030
6060
6060
6060
60E0
60C0
C0C0
C0C0
C180
E380
7F00
3E00
ENDCHAR
STARTCHAR char86
ENCODING 86
SWIDTH 9 0
DWIDTH 12 0
BBX 11 13 2 0
BITMAP
C060
C060
C0C0
C0C0
C180
C180
6300
6700
6600
6C00
6C00
3800
3800
ENDCHAR
STARTCHAR char87
ENCODING 87
SWIDTH 34 0
DWIDTH 17 0
BBX 17 13 2 0
BITMAP
C1C180
C1C180
C3C300
C3C300
C6C600
C6C600
CCCC00
CCCC00
D8D800
D0D800
F0F000
E0F000
E0E000
ENDCHAR
STARTCHAR char88
ENCODING 88
SWIDTH 9 0
DWIDTH 12 0
BBX 13 13 0 0
BITMAP
3018
1830
1860
0CC0
0D80
0780
0700
0700
0F00
1980
3180
60C0
C0C0
ENDCHAR
STARTCHAR char89
ENCODING 89
SWIDTH 9 0
DWIDTH 12 0
BBX 12 13 2 0
BITMAP
C070
6060
60C0
3180
1B80
1B00
0E00
0C00
0C00
0C00
0C00
1800
1800
ENDCHAR
STARTCHAR char90
ENCODING 90
SWIDTH 4 0
DWIDTH 11 0
BBX 11 13 0 0
BITMAP
3FE0
3FE0
0060
00C0
0180
0300
0600
0C00
1800
3000
6000
FFC0
FFC0
ENDCHAR
STARTCHAR char91
ENCODING 91
SWIDTH 24 0
DWIDTH 5 0
BBX 7 17 0 -4
BITMAP
1E
1E
18
30
30
30
30
30
70
60
60
60
60
60
C0
F0
F0
ENDCHAR
STARTCHAR char92
ENCODING 92
SWIDTH 24 0
DWIDTH 5 0
BBX 4 13 2 0
BITMAP
C0
C0
C0
60
60
60
60
60
60
70
30
30
30
ENDCHAR
STARTCHAR char93
ENCODING 93
SWIDTH 24 0
DWIDTH 5 0
BBX 7 17 -1 -4
BITMAP
1E
1E
06
06
0C
0C
0C
0C
1C
18
18
18
18
30
30
F0
F0
ENDCHAR
STARTCHAR char94
ENCODING 94
SWIDTH 39 0
DWIDTH 8 0
BBX 8 7 1 6
BITMAP
18
3C
3C
64
66
66
C3
ENDCHAR
STARTCHAR char95
ENCODING 95
SWIDTH 49 0
DWIDTH 10 0
BBX 11 2 -2 -4
BITMAP
FFE0
FFE0
ENDCHAR
STARTCHAR char96
ENCODING 96
SWIDTH 29 0
DWIDTH 6 0
BBX 3 3 3 10
BITMAP
C0
40
60
ENDCHAR
STARTCHAR char97
ENCODING 97
SWIDTH 49 0
DWIDTH 10 0
BBX 9 10 1 0
BITMAP
1F00
3F80
6180
0180
7F80
FD80
C300
C700
FF00
7B00
ENDCHAR
STARTCHAR char98
ENCODING 98
SWIDTH 49 0
DWIDTH 10 0
BBX 9 13 1 0
BITMAP
1800
1800
3000
3700
3F80
3180
7180
6180
6180
6380
6300
FF00
DC00
ENDCHAR
STARTCHAR char99
ENCODING 99
SWIDTH 44 0
DWIDTH 9 0
BBX 8 10 1 0
BITMAP
1E
3F
63
60
C0
C0
C0
C6
FC
78
ENDCHAR
STARTCHAR char100
ENCODING 100
SWIDTH 49 0
DWIDTH 10 0
BBX 10 13 1 0
BITMAP
00C0
00C0
01C0
1D80
3F80
7380
E180
C180
C180
C380
E700
7F00
3B00
ENDCHAR
STARTCHAR char101
ENCODING 101
SWIDTH 49 0
DWIDTH 10 0
BBX 9 10 1 0
BITMAP
1E00
3F00
6180
C180
FF80
FF80
C000
C300
7E00
3C00
ENDCHAR
STARTCHAR char102
ENCODING 102
SWIDTH 24 0
DWIDTH 5 0
BBX 7 13 1 0
BITMAP
1E
3E
30
F8
F8
70
60
60
60
60
E0
C0
C0
ENDCHAR
STARTCHAR char103
ENCODING 103
SWIDTH 49 0
DWIDTH 10 0
BBX 10 14 1 -4
BITMAP
1EC0
3FC0
71C0
E0C0
C0C0
C0C0
C1C0
E380
7F80
3D80
0180
C300
FF00
7E00
ENDCHAR
STARTCHAR char104
ENCODING 104
SWIDTH 49 0
DWIDTH 10 0
BBX 9 13 1 0
BITMAP
1800
1800
3000
3700
3F80
3980
7180
6180
6300
6300
6300
C600
C600
ENDCHAR
STARTCHAR char105
ENCODING 105
SWIDTH 24 0
DWIDTH 5 0
BBX 5 13 1 0
BITMAP
18
18
00
30
30
30
70
60
60
60
60
C0
C0
ENDCHAR
STARTCHAR char106
ENCODING 106
SWIDTH 19 0
DWIDTH 4 0
BBX 8 17 -2 -4
BITMAP
03
03
00
06
06
06
0C
0C
0C
0C
0C
18
18
18
38
F0
E0
ENDCHAR
STARTCHAR char107
ENCODING 107
SWIDTH 44 0
DWIDTH 9 0
BBX 9 13 1 0
BITMAP
1800
1800
3000
3180
3300
3600
7C00
7800
6C00
6C00
4C00
C600
C600
ENDCHAR
STARTCHAR char108
ENCODING 108
SWIDTH 24 0
DWIDTH 5 0
BBX 5 13 1 0
BITMAP
18
18
30
30
30
30
30
60
60
60
60
C0
C0
ENDCHAR
STARTCHAR char109
ENCODING 109
SWIDTH 24 0
DWIDTH 15 0
BBX 14 10 1 0
BITMAP
3738
3FFC
318C
718C
6318
6318
6318
6318
C630
C630
ENDCHAR
STARTCHAR char110
ENCODING 110
SWIDTH 49 0
DWIDTH 10 0
BBX 9 10 1 0
BITMAP
3700
3F00
3180
7180
6300
6300
6300
6300
C600
C600
ENDCHAR
STARTCHAR char111
ENCODING 111
SWIDTH 49 0
DWIDTH 10 0
BBX 9 10 1 0
BITMAP
1E00
3F00
6380
E180
C180
C180
C380
E700
7E00
3C00
ENDCHAR
STARTCHAR char112
ENCODING 112
SWIDTH 49 0
DWIDTH 10 0
BBX 10 14 0 -4
BITMAP
1B80
1FC0
39C0
30C0
30C0
30C0
31C0
7180
7F00
6E00
6000
C000
C000
C000
ENDCHAR
STARTCHAR char113
ENCODING 113
SWIDTH 49 0
DWIDTH 10 0
BBX 10 14 1 -4
BITMAP
1CC0
3EC0
73C0
E180
C180
C180
C380
E700
7F00
3B00
0700
0700
0600
0600
ENDCHAR
STARTCHAR char114
ENCODING 114
SWIDTH 29 0
DWIDTH 6 0
BBX 7 10 1 0
BITMAP
36
3E
78
70
60
60
60
E0
C0
C0
ENDCHAR
STARTCHAR char115
ENCODING 115
SWIDTH 44 0
DWIDTH 9 0
BBX 8 10 1 0
BITMAP
1E
3F
33
38
1C
0E
C6
C6
7E
3C
ENDCHAR
STARTCHAR char116
ENCODING 116
SWIDTH 24 0
DWIDTH 5 0
BBX 5 13 1 0
BITMAP
10
30
60
F8
F8
60
60
60
C0
C0
C0
E0
E0
ENDCHAR
STARTCHAR char117
ENCODING 117
SWIDTH 49 0
DWIDTH 10 0
BBX 9 10 1 0
BITMAP
3180
3180
3180
6180
6300
6300
C300
C700
FE00
7600
ENDCHAR
STARTCHAR char118
ENCODING 118
SWIDTH 44 0
DWIDTH 9 0
BBX 9 10 1 0
BITMAP
C180
C300
6300
6600
6600
6E00
6C00
3C00
3800
3800
ENDCHAR
STARTCHAR char119
ENCODING 119
SWIDTH 14 0
DWIDTH 13 0
BBX 13 10 1 0
BITMAP
C318
C718
C510
CD30
C920
5960
5960
5140
71C0
6180
ENDCHAR
STARTCHAR char120
ENCODING 120
SWIDTH 44 0
DWIDTH 9 0
BBX 10 10 0 0
BITMAP
30C0
1980
1B00
0E00
0C00
0E00
1E00
3300
6300
C180
ENDCHAR
STARTCHAR char121
ENCODING 121
SWIDTH 44 0
DWIDTH 9 0
BBX 10 14 0 -4
BITMAP
30C0
3180
3180
3300
1B00
1E00
1E00
1C00
1C00
1800
1800
3000
F000
E000
ENDCHAR
STARTCHAR char122
ENCODING 122
SWIDTH 39 0
DWIDTH 8 0
BBX 8 10 0 0
BITMAP
7F
7F
06
0C
1C
18
30
60
FE
FE
ENDCHAR
STARTCHAR char123
ENCODING 123
SWIDTH 29 0
DWIDTH 6 0
BBX 7 17 1 -4
BITMAP
0E
1E
18
18
30
30
30
C0
C0
60
60
60
60
C0
C0
E0
60
ENDCHAR
STARTCHAR char124
ENCODING 124
SWIDTH 24 0
DWIDTH 5 0
BBX 2 17 2 -4
BITMAP
C0
C0
C0
C0
C0
C0
C0
C0
C0
C0
C0
C0
C0
C0
C0
C0
C0
ENDCHAR
STARTCHAR char125
ENCODING 125
SWIDTH 29 0
DWIDTH 6 0
BBX 8 17 -2 -4
BITMAP
07
07
03
03
06
06
06
06
03
07
0C
0C
18
18
30
F0
E0
ENDCHAR
STARTCHAR char126
ENCODING 126
SWIDTH 4 0
DWIDTH 11 0
BBX 9 3 2 5
BITMAP
7880
FF80
8F00
ENDCHAR
STARTCHAR char160
ENCODING 160
SWIDTH 24 0
DWIDTH 5 0
BBX 0 0 0 0
BITMAP
ENDCHAR
STARTCHAR char161
ENCODING 161
SWIDTH 29 0
DWIDTH 6 0
BBX 5 14 1 -4
BITMAP
18
18
00
10
10
30
20
20
60
60
60
60
C0
C0
ENDCHAR
STARTCHAR char162
ENCODING 162
SWIDTH 49 0
DWIDTH 10 0
BBX 9 17 1 -4
BITMAP
0100
0100
0200
1E00
3F80
6580
E400
C800
C800
D300
F600
7E00
3C00
2000
4000
4000
8000
ENDCHAR
STARTCHAR char163
ENCODING 163
SWIDTH 49 0
DWIDTH 10 0
BBX 11 13 1 0
BITMAP
0780
0FC0
1CE0
1860
1800
7F00
7F00
1800
1800
3000
7C40
FFC0
8780
ENDCHAR
STARTCHAR char164
ENCODING 164
SWIDTH 49 0
DWIDTH 10 0
BBX 9 9 2 2
BITMAP
4100
DD80
3E00
6300
6300
6300
3E00
DD80
4100
ENDCHAR
STARTCHAR char165
ENCODING 165
SWIDTH 49 0
DWIDTH 10 0
BBX 11 13 1 0
BITMAP
6060
60C0
3180
3300
3200
1E00
FF80
FF80
1800
FF80
FF00
3000
3000
ENDCHAR
STARTCHAR char166
ENCODING 166
SWIDTH 24 0
DWIDTH 5 0
BBX 2 17 2 -4
BITMAP
C0
C0
C0
C0
C0
C0
C0
00
00
00
C0
C0
C0
C0
C0
C0
C0
ENDCHAR
STARTCHAR char167
ENCODING 167
SWIDTH 49 0
DWIDTH 10 0
BBX 10 17 0 -4
BITMAP
0F80
1FC0
18C0
1800
0C00
3600
6300
6180
60C0
30C0
1980
0F00
0600
C300
E300
7F00
3C00
ENDCHAR
STARTCHAR char168
ENCODING 168
SWIDTH 29 0
DWIDTH 6 0
BBX 6 2 2 11
BITMAP
CC
CC
ENDCHAR
STARTCHAR char169
ENCODING 169
SWIDTH 14 0
DWIDTH 13 0
BBX 14 13 1 0
BITMAP
0FC0
1FE0
7878
6018
EF9C
DFCC
D80C
DFCC
EF9C
6018
7878
3FF0
0FC0
ENDCHAR
STARTCHAR char170
ENCODING 170
SWIDTH 34 0
DWIDTH 7 0
BBX 7 7 1 6
BITMAP
3C
66
06
7E
CC
CC
7C
ENDCHAR
STARTCHAR char171
ENCODING 171
SWIDTH 49 0
DWIDTH 10 0
BBX 9 8 1 1
BITMAP
1980
3300
6600
CC00
CC00
4400
6600
2200
ENDCHAR
STARTCHAR char172
ENCODING 172
SWIDTH 4 0
DWIDTH 11 0
BBX 9 5 2 4
BITMAP
FF80
FF80
0180
0180
0180
ENDCHAR
STARTCHAR char173
ENCODING 173
SWIDTH 29 0
DWIDTH 6 0
BBX 5 2 1 4
BITMAP
F8
F8
ENDCHAR
STARTCHAR char174
ENCODING 174
SWIDTH 14 0
DWIDTH 13 0
BBX 14 13 1 0
BITMAP
0FC0
1FE0
7878
6018
E7DC
C6CC
C78C
C68C
E6DC
6018
7878
3FF0
0FC0
ENDCHAR
STARTCHAR char175
ENCODING 175
SWIDTH 49 0
DWIDTH 10 0
BBX 10 2 2 14
BITMAP
FFC0
FFC0
ENDCHAR
STARTCHAR char176
ENCODING 176
SWIDTH 34 0
DWIDTH 7 0
BBX 5 5 2 8
BITMAP
70
88
88
88
70
ENDCHAR
STARTCHAR char177
ENCODING 177
SWIDTH 49 0
DWIDTH 10 0
BBX 10 13 1 0
BITMAP
0C00
0C00
0C00
0C00
FFC0
FFC0
0C00
0C00
0C00
0C00
0000
FFC0
FFC0
ENDCHAR
STARTCHAR char178
ENCODING 178
SWIDTH 29 0
DWIDTH 6 0
BBX 6 7 1 6
BITMAP
38
4C
0C
18
70
60
FC
ENDCHAR
STARTCHAR char179
ENCODING 179
SWIDTH 29 0
DWIDTH 6 0
BBX 6 7 1 6
BITMAP
38
4C
0C
18
0C
8C
78
ENDCHAR
STARTCHAR char180
ENCODING 180
SWIDTH 29 0
DWIDTH 6 0
BBX 3 3 3 10
BITMAP
60
C0
80
ENDCHAR
STARTCHAR char181
ENCODING 181
SWIDTH 49 0
DWIDTH 10 0
BBX 11 14 -1 -4
BITMAP
1860
1860
1860
18E0
30C0
30C0
30C0
31C0
6F80
6D80
6000
6000
6000
C000
ENDCHAR
STARTCHAR char182
ENCODING 182
SWIDTH 49 0
DWIDTH 10 0
BBX 10 16 1 -3
BITMAP
3FC0
7880
F880
F880
F880
7880
3880
0880
0880
0880
0880
0880
0880
0880
0880
0880
ENDCHAR
STARTCHAR char183
ENCODING 183
SWIDTH 29 0
DWIDTH 6 0
BBX 2 2 5 6
BITMAP
C0
C0
ENDCHAR
STARTCHAR char184
ENCODING 184
SWIDTH 29 0
DWIDTH 6 0
BBX 5 3 1 -3
BITMAP
20
18
F8
ENDCHAR
STARTCHAR char185
ENCODING 185
SWIDTH 29 0
DWIDTH 6 0
BBX 4 7 3 6
BITMAP
10
70
B0
30
70
60
60
ENDCHAR
STARTCHAR char186
ENCODING 186
SWIDTH 34 0
DWIDTH 7 0
BBX 7 7 1 6
BITMAP
3C
7E
E6
C6
CE
FC
78
ENDCHAR
STARTCHAR char187
ENCODING 187
SWIDTH 49 0
DWIDTH 10 0
BBX 9 8 0 1
BITMAP
2200
3300
1100
1980
1980
3300
6600
CC00
ENDCHAR
STARTCHAR char188
ENCODING 188
SWIDTH 24 0
DWIDTH 15 0
BBX 13 14 2 -1
BITMAP
0818
3830
5860
18E0
30C0
3180
3300
0618
0C38
1878
38D8
31F8
6030
C000
ENDCHAR
STARTCHAR char189
ENCODING 189
SWIDTH 24 0
DWIDTH 15 0
BBX 13 14 2 -1
BITMAP
1818
3830
5860
18E0
18C0
3180
3370
0698
0C18
1830
38E0
30C0
61F8
C000
ENDCHAR
STARTCHAR char190
ENCODING 190
SWIDTH 24 0
DWIDTH 15 0
BBX 13 14 1 -1
BITMAP
3818
4C30
0C70
1860
0CC0
8D80
7B00
0308
0618
0C38
1858
30F8
3030
6000
ENDCHAR
STARTCHAR char191
ENCODING 191
SWIDTH 4 0
DWIDTH 11 0
BBX 9 14 0 -4
BITMAP
0300
0300
0000
0300
0300
0600
1C00
3800
6000
C000
C180
E300
7F00
3E00
ENDCHAR
STARTCHAR char192
ENCODING 192
SWIDTH 9 0
DWIDTH 12 0
BBX 11 17 0 0
BITMAP
0300
0100
0180
0000
0380
06C0
06C0
0CC0
0CC0
18C0
18C0
3FC0
3FC0
6060
6060
C060
C060
ENDCHAR
STARTCHAR char193
ENCODING 193
SWIDTH 9 0
DWIDTH 12 0
BBX 11 17 0 0
BITMAP
00C0
0180
0100
0000
0380
06C0
06C0
0CC0
0CC0
18C0
18C0
3FC0
3FC0
6060
6060
C060
C060
ENDCHAR
STARTCHAR char194
ENCODING 194
SWIDTH 9 0
DWIDTH 12 0
BBX 11 17 0 0
BITMAP
0180
03C0
0640
0000
0380
06C0
06C0
0CC0
0CC0
18C0
18C0
3FC0
3FC0
6060
6060
C060
C060
ENDCHAR
STARTCHAR char195
ENCODING 195
SWIDTH 9 0
DWIDTH 12 0
BBX 11 17 0 0
BITMAP
0320
07E0
04C0
0000
0380
06C0
06C0
0CC0
0CC0
18C0
18C0
3FC0
3FC0
6060
6060
C060
C060
ENDCHAR
STARTCHAR char196
ENCODING 196
SWIDTH 9 0
DWIDTH 12 0
BBX 12 16 0 0
BITMAP
0330
0330
0000
0380
06C0
06C0
0CC0
0CC0
18C0
18C0
3FC0
3FC0
6060
6060
C060
C060
ENDCHAR
STARTCHAR char197
ENCODING 197
SWIDTH 9 0
DWIDTH 12 0
BBX 11 16 0 0
BITMAP
0180
0240
0240
0380
06C0
06C0
0CC0
0CC0
18C0
18C0
3FC0
3FC0
6060
6060
C060
C060
ENDCHAR
STARTCHAR char198
ENCODING 198
SWIDTH 39 0
DWIDTH 18 0
BBX 19 13 -1 0
BITMAP
00FFE0
01FFE0
01B000
033000
063000
063000
0C3FC0
1FFFC0
1FE000
306000
306000
60FFC0
C0FFC0
ENDCHAR
STARTCHAR char199
ENCODING 199
SWIDTH 14 0
DWIDTH 13 0
BBX 11 16 2 -3
BITMAP
0F80
3FC0
38E0
6060
6000
C000
C000
C000
C000
C0C0
6180
7F00
3E00
0800
0600
3E00
ENDCHAR
STARTCHAR char200
ENCODING 200
SWIDTH 9 0
DWIDTH 12 0
BBX 12 17 1 0
BITMAP
0180
0080
00C0
0000
1FF0
1FF0
3000
3000
3000
3FC0
7FC0
6000
6000
6000
6000
FFC0
FFC0
ENDCHAR
STARTCHAR char201
ENCODING 201
SWIDTH 9 0
DWIDTH 12 0
BBX 12 17 1 0
BITMAP
0060
00C0
0080
0000
1FF0
1FF0
3000
3000
3000
3FC0
7FC0
6000
6000
6000
6000
FFC0
FFC0
ENDCHAR
STARTCHAR char202
ENCODING 202
SWIDTH 9 0
DWIDTH 12 0
BBX 12 17 1 0
BITMAP
0180
03C0
0640
0000
1FF0
1FF0
3000
3000
3000
3FC0
7FC0
6000
6000
6000
6000
FFC0
FFC0
ENDCHAR
STARTCHAR char203
ENCODING 203
SWIDTH 9 0
DWIDTH 12 0
BBX 12 16 1 0
BITMAP
0660
0660
0000
1FF0
1FF0
3000
3000
3000
3FC0
7FC0
6000
6000
6000
6000
FFC0
FFC0
ENDCHAR
STARTCHAR char204
ENCODING 204
SWIDTH 24 0
DWIDTH 5 0
BBX 5 17 1 0
BITMAP
30
10
18
00
18
18
30
30
30
30
70
60
60
60
60
C0
C0
ENDCHAR
STARTCHAR char205
ENCODING 205
SWIDTH 24 0
DWIDTH 5 0
BBX 6 17 1 0
BITMAP
0C
18
10
00
18
18
30
30
30
30
70
60
60
60
60
C0
C0
ENDCHAR
STARTCHAR char206
ENCODING 206
SWIDTH 24 0
DWIDTH 5 0
BBX 6 17 1 0
BITMAP
18
3C
64
00
18
18
30
30
30
30
70
60
60
60
60
C0
C0
ENDCHAR
STARTCHAR char207
ENCODING 207
SWIDTH 24 0
DWIDTH 5 0
BBX 8 16 1 0
BITMAP
33
33
00
18
18
30
30
30
30
70
60
60
60
60
C0
C0
ENDCHAR
STARTCHAR char208
ENCODING 208
SWIDTH 14 0
DWIDTH 13 0
BBX 12 13 1 0
BITMAP
1FC0
1FE0
3060
3030
3030
FE30
FE30
6030
6060
6060
60C0
FFC0
FF00
ENDCHAR
STARTCHAR char209
ENCODING 209
SWIDTH 14 0
DWIDTH 13 0
BBX 13 17 1 0
BITMAP
0190
03F0
0260
0000
1C18
1C18
3638
3630
3630
3630
7330
6360
6360
6360
6160
C1C0
C1C0
ENDCHAR
STARTCHAR char210
ENCODING 210
SWIDTH 19 0
DWIDTH 14 0
BBX 12 17 2 0
BITMAP
0300
0100
0180
0000
0F80
1FC0
38E0
6070
E030
C030
C030
C030
C060
E060
71C0
3F80
1F00
ENDCHAR
STARTCHAR char211
ENCODING 211
SWIDTH 19 0
DWIDTH 14 0
BBX 12 17 2 0
BITMAP
00C0
0180
0100
0000
0F80
1FC0
38E0
6070
E030
C030
C030
C030
C060
E060
71C0
3F80
1F00
ENDCHAR
STARTCHAR char212
ENCODING 212
SWIDTH 19 0
DWIDTH 14 0
BBX 12 17 2 0
BITMAP
0300
0780
0C80
0000
0F80
1FC0
38E0
6070
E030
C030
C030
C030
C060
E060
71C0
3F80
1F00
ENDCHAR
STARTCHAR char213
ENCODING 213
SWIDTH 19 0
DWIDTH 14 0
BBX 12 17 2 0
BITMAP
0640
0FC0
0980
0000
0F80
1FC0
38E0
6070
E030
C030
C030
C030
C060
E060
71C0
3F80
1F00
ENDCHAR
STARTCHAR char214
ENCODING 214
SWIDTH 19 0
DWIDTH 14 0
BBX 12 16 2 0
BITMAP
0660
0660
0000
0F80
1FC0
38E0
6070
E030
C030
C030
C030
C060
E060
71C0
3F80
1F00
ENDCHAR
STARTCHAR char215
ENCODING 215
SWIDTH 4 0
DWIDTH 11 0
BBX 8 8 2 2
BITMAP
42
E7
7E
3C
3C
7E
E7
42
ENDCHAR
STARTCHAR char216
ENCODING 216
SWIDTH 19 0
DWIDTH 14 0
BBX 12 15 2 -1
BITMAP
0030
0F30
3FE0
70E0
61E0
E330
C630
C630
CC30
D870
F060
71C0
FFC0
CF00
8000
ENDCHAR
STARTCHAR char217
ENCODING 217
SWIDTH 14 0
DWIDTH 13 0
BBX 12 17 2 0
BITMAP
0600
0200
0300
0000
3030
3030
6060
6060
6060
60E0
60C0
C0C0
C0C0
C180
E380
7F00
3E00
ENDCHAR
STARTCHAR char218
ENCODING 218
SWIDTH 14 0
DWIDTH 13 0
BBX 12 17 2 0
BITMAP
0180
0300
0200
0000
3030
3030
6060
6060
6060
60E0
60C0
C0C0
C0C0
C180
E380
7F00
3E00
ENDCHAR
STARTCHAR char219
ENCODING 219
SWIDTH 14 0
DWIDTH 13 0
BBX 12 17 2 0
BITMAP
0300
0780
0C80
0000
3030
3030
6060
6060
6060
60E0
60C0
C0C0
C0C0
C180
E380
7F00
3E00
ENDCHAR
STARTCHAR char220
ENCODING 220
SWIDTH 14 0
DWIDTH 13 0
BBX 12 16 2 0
BITMAP
0CC0
0CC0
0000
3030
3030
6060
6060
6060
60E0
60C0
C0C0
C0C0
C180
E380
7F00
3E00
ENDCHAR
STARTCHAR char221
ENCODING 221
SWIDTH 9 0
DWIDTH 12 0
BBX 12 17 2 0
BITMAP
0180
0300
0200
0000
C070
6060
60C0
3180
1B80
1B00
0E00
0C00
0C00
0C00
0C00
1800
1800
ENDCHAR
STARTCHAR char222
ENCODING 222
SWIDTH 9 0
DWIDTH 12 0
BBX 11 13 1 0
BITMAP
1800
1800
3000
3FC0
3FE0
3060
7060
60E0
7FC0
7F80
6000
C000
C000
ENDCHAR
STARTCHAR char223
ENCODING 223
SWIDTH 4 0
DWIDTH 11 0
BBX 10 13 1 0
BITMAP
0780
1FC0
38C0
30C0
3180
3300
6300
6180
60C0
60C0
79C0
CF80
C700
ENDCHAR
STARTCHAR char224
ENCODING 224
SWIDTH 49 0
DWIDTH 10 0
BBX 9 14 1 0
BITMAP
0C00
0400
0600
0000
1F00
3F80
6180
0180
7F80
FD80
C300
C700
FF00
7B00
ENDCHAR
STARTCHAR char225
ENCODING 225
SWIDTH 49 0
DWIDTH 10 0
BBX 9 14 1 0
BITMAP
0300
0600
0400
0000
1F00
3F80
6180
0180
7F80
FD80
C300
C700
FF00
7B00
ENDCHAR
STARTCHAR char226
ENCODING 226
SWIDTH 49 0
DWIDTH 10 0
BBX 9 14 1 0
BITMAP
0600
0F00
1900
0000
1F00
3F80
6180
0180
7F80
FD80
C300
C700
FF00
7B00
ENDCHAR
STARTCHAR char227
ENCODING 227
SWIDTH 49 0
DWIDTH 10 0
BBX 9 14 1 0
BITMAP
0C80
1F80
1300
0000
1F00
3F80
6180
0180
7F80
FD80
C300
C700
FF00
7B00
ENDCHAR
STARTCHAR char228
ENCODING 228
SWIDTH 49 0
DWIDTH 10 0
BBX 9 13 1 0
BITMAP
1980
1980
0000
1F00
3F80
6180
0180
7F80
FD80
C300
C700
FF00
7B00
ENDCHAR
STARTCHAR char229
ENCODING 229
SWIDTH 49 0
DWIDTH 10 0
BBX 9 15 1 0
BITMAP
0600
0900
0900
0600
0000
1F00
3F80
6180
0180
7F80
FD80
C300
C700
FF00
7B00
ENDCHAR
STARTCHAR char230
ENCODING 230
SWIDTH 29 0
DWIDTH 16 0
BBX 15 10 1 0
BITMAP
1F38
3FFC
61C6
0186
7FFE
FFFE
C380
C38E
FDFC
78F8
ENDCHAR
STARTCHAR char231
ENCODING 231
SWIDTH 44 0
DWIDTH 9 0
BBX 8 13 1 -3
BITMAP
1E
3F
63
60
C0
C0
C0
C6
FC
78
20
18
F8
ENDCHAR
STARTCHAR char232
ENCODING 232
SWIDTH 49 0
DWIDTH 10 0
BBX 9 14 1 0
BITMAP
0C00
0400
0600
0000
1E00
3F00
6180
C180
FF80
FF80
C000
C300
7E00
3C00
ENDCHAR
STARTCHAR char233
ENCODING 233
SWIDTH 49 0
DWIDTH 10 0
BBX 9 14 1 0
BITMAP
0300
0600
0400
0000
1E00
3F00
6180
C180
FF80
FF80
C000
C300
7E00
3C00
ENDCHAR
STARTCHAR char234
ENCODING 234
SWIDTH 49 0
DWIDTH 10 0
BBX 9 14 1 0
BITMAP
0600
0F00
1900
0000
1E00
3F00
6180
C180
FF80
FF80
C000
C300
7E00
3C00
ENDCHAR
STARTCHAR char235
ENCODING 235
SWIDTH 49 0
DWIDTH 10 0
BBX 9 13 1 0
BITMAP
1980
1980
0000
1E00
3F00
6180
C180
FF80
FF80
C000
C300
7E00
3C00
ENDCHAR
STARTCHAR char236
ENCODING 236
SWIDTH 24 0
DWIDTH 5 0
BBX 5 14 1 0
BITMAP
30
10
18
00
30
30
70
60
60
60
60
E0
C0
C0
ENDCHAR
STARTCHAR char237
ENCODING 237
SWIDTH 24 0
DWIDTH 5 0
BBX 5 14 1 0
BITMAP
18
30
20
00
30
30
70
60
60
60
60
E0
C0
C0
ENDCHAR
STARTCHAR char238
ENCODING 238
SWIDTH 24 0
DWIDTH 5 0
BBX 5 14 1 0
BITMAP
30
78
C8
00
30
30
70
60
60
60
60
E0
C0
C0
ENDCHAR
STARTCHAR char239
ENCODING 239
SWIDTH 24 0
DWIDTH 5 0
BBX 7 13 1 0
BITMAP
66
66
00
30
30
70
60
60
60
60
E0
C0
C0
ENDCHAR
STARTCHAR char240
ENCODING 240
SWIDTH 49 0
DWIDTH 10 0
BBX 9 14 1 0
BITMAP
0680
0300
0F00
0100
1D80
3F80
6380
E180
C180
C180
C300
E700
7E00
3C00
ENDCHAR
STARTCHAR char241
ENCODING 241
SWIDTH 49 0
DWIDTH 10 0
BBX 9 14 1 0
BITMAP
0C80
1F80
1300
0000
3700
3F00
3180
7180
6300
6300
6300
6300
C600
C600
ENDCHAR
STARTCHAR char242
ENCODING 242
SWIDTH 49 0
DWIDTH 10 0
BBX 9 14 1 0
BITMAP
0C00
0400
0600
0000
1E00
3F00
6380
E180
C180
C180
C380
E700
7E00
3C00
ENDCHAR
STARTCHAR char243
ENCODING 243
SWIDTH 49 0
DWIDTH 10 0
BBX 9 14 1 0
BITMAP
0300
0600
0400
0000
1E00
3F00
6380
E180
C180
C180
C380
E700
7E00
3C00
ENDCHAR
STARTCHAR char244
ENCODING 244
SWIDTH 49 0
DWIDTH 10 0
BBX 9 14 1 0
BITMAP
0600
0F00
1900
0000
1E00
3F00
6380
E180
C180
C180
C380
E700
7E00
3C00
ENDCHAR
STARTCHAR char245
ENCODING 245
SWIDTH 49 0
DWIDTH 10 0
BBX 9 14 1 0
BITMAP
0C80
1F80
1300
0000
1E00
3F00
6380
E180
C180
C180
C380
E700
7E00
3C00
ENDCHAR
STARTCHAR char246
ENCODING 246
SWIDTH 49 0
DWIDTH 10 0
BBX 9 13 1 0
BITMAP
1980
1980
0000
1E00
3F00
6380
E180
C180
C180
C380
E700
7E00
3C00
ENDCHAR
STARTCHAR char247
ENCODING 247
SWIDTH 49 0
DWIDTH 10 0
BBX 8 8 2 3
BITMAP
18
18
00
FF
FF
00
18
18
ENDCHAR
STARTCHAR char248
ENCODING 248
SWIDTH 4 0
DWIDTH 11 0
BBX 9 12 2 -1
BITMAP
0100
1D00
7E00
6300
E580
C980
D180
D380
E700
7E00
BC00
8000
ENDCHAR
STARTCHAR char249
ENCODING 249
SWIDTH 49 0
DWIDTH 10 0
BBX 9 14 1 0
BITMAP
0600
0200
0300
0000
3180
3180
3180
6180
6300
6300
C300
C700
FE00
7600
ENDCHAR
STARTCHAR char250
ENCODING 250
SWIDTH 49 0
DWIDTH 10 0
BBX 9 14 1 0
BITMAP
0300
0600
0400
0000
3180
3180
3180
6180
6300
6300
C300
C700
FE00
7600
ENDCHAR
STARTCHAR char251
ENCODING 251
SWIDTH 49 0
DWIDTH 10 0
BBX 9 14 1 0
BITMAP
0600
0F00
1900
0000
3180
3180
3180
6180
6300
6300
C300
C700
FE00
7600
ENDCHAR
STARTCHAR char252
ENCODING 252
SWIDTH 49 0
DWIDTH 10 0
BBX 10 13 1 0
BITMAP
0CC0
0CC0
0000
3180
3180
3180
6180
6300
6300
C300
C700
FE00
7600
ENDCHAR
STARTCHAR char253
ENCODING 253
SWIDTH 44 0
DWIDTH 9 0
BBX 10 18 0 -4
BITMAP
0180
0300
0200
0000
30C0
3180
3180
3300
1B00
1E00
1E00
1C00
1C00
1800
1800
3000
F000
E000
ENDCHAR
STARTCHAR char254
ENCODING 254
SWIDTH 49 0
DWIDTH 10 0
BBX 10 17 0 -4
BITMAP
1800
1800
1800
3780
3780
39C0
30C0
30C0
60C0
61C0
7180
7F00
6E00
6000
C000
C000
C000
ENDCHAR
STARTCHAR char255
ENCODING 255
SWIDTH 44 0
DWIDTH 9 0
BBX 10 17 0 -4
BITMAP
0CC0
0CC0
0000
30C0
3180
3180
3300
1B00
1E00
1E00
1C00
1C00
1800
1800
3000
F000
E000
ENDCHAR
ENDFONT
